<svg preserveAspectRatio="xMidYMid meet" data-bbox="73.858 52.133 2344.833 692.047" viewBox="0 0 2492.55 816" height="816" width="2492.55" xmlns="http://www.w3.org/2000/svg" data-type="ugc" role="presentation" aria-hidden="true" aria-label="">
    <g>
        <linearGradient y2="279.815" x2="1390.784" y1="52.133" x1="1390.784" gradientUnits="userSpaceOnUse" id="a5fef71e-823e-41f3-87db-827d26ef0e4b_comp-lzp6ut16">
            <stop offset=".172" stop-color="#fcd405"></stop>
            <stop offset=".732" stop-color="#bc161c"></stop>
            <stop offset=".793" stop-color="#990b0f"></stop>
            <stop offset=".932" stop-color="#410000"></stop>
            <stop offset=".968" stop-color="#000000"></stop>
        </linearGradient>
        <path d="m1193.651 279.805 316.683-.033c1.563-6.024 6.104-22.158 13.103-34.959 8.381-15.375 21.017-28.733 33.238-41.649 11.445-12.104 23.287-24.614 31.434-38.637 10.788-18.527 12.72-31.609 12.515-39.149-4.887 8.194-13.551 21.731-24.032 33.768-17.609 20.18-25.894 23.548-26.78 23.864l-6.499 2.326 2.582-6.395c3.555-8.798 7.228-14.421 11.113-20.371 4.664-7.131 9.483-14.503 15.246-28.719 5.799-14.262 6.786-21.563 7.824-29.297.646-4.765 1.311-9.688 3.038-16.435 3.056-11.957 8.98-24.374 12.98-31.986-8.528 3.979-22.751 13.25-33.243 33.412-7.25 13.942-9.164 22.762-10.848 30.546-1.724 7.993-3.361 15.548-10.201 26.371l-.79 1.242-1.455.176h-.061c-3.142 0-8.036-2.154-10.722-16.083-1.261-6.621-1.925-15.419-2.255-21.717-3.939 5.347-9.546 14.578-13.986 28.267-3.433 10.535-4.381 18.668-5.289 26.528-.923 7.921-1.799 15.412-5.063 24.41-9.304 25.674-36.496 63.549-61.305 64.896-1.846.097-3.86.161-5.961.161-15.415 0-25.598-3.339-30.28-9.936-3.264-4.596-3.681-10.492-1.225-17.508 3.807-10.92 10.327-17.57 16.64-24.001 6.184-6.298 12.578-12.815 17.049-23.803a187.082 187.082 0 0 0 4.664-12.776c-5.647 7.088-13.073 15.642-20.621 22.112-12.815 10.966-19.588 20.259-19.668 20.413 0 0 .911-3.969 1.646-6.969.328-2.649 19.186-49.887 31.628-65.941 7.285-9.408 14.176-18.291 18.998-28.762 6.442-13.976 8.676-28.504 9.43-37.821-10.008 13.882-29.526 40.751-34.953 46.813-12.15 13.537-17.077 20.188-17.127 20.248l-5.308 7.178-.28-8.916c-.021-.814-.003-8.61 8.316-31.893 2.689-7.552 3.476-14.938 3.638-20.025-4.409 4.955-11.656 14.675-20.381 32.396-5.986 12.151-9.685 25.423-13.606 39.47-5.102 18.291-10.385 37.214-21.171 53.793-19.131 29.419-48.224 45.44-79.345 42.927-12.967-1.033-18.298-7.271-20.488-12.323-5.721-13.178 3.004-33.293 11.03-43.365 6.194-7.767 13.002-14.323 19.577-20.665 14.83-14.273 28.826-27.753 36.177-54.148 3.576-12.927 4.392-21.565 4.248-27.106-3.186 7.422-8.044 18.111-13.336 27.516-9.304 16.561-14.701 21.825-14.927 22.04l-7.811 7.494 2.672-10.485c.043-.183 4.518-17.863 5.009-28.27.233-4.934.072-8.683-.093-12.31-.313-7.202-.646-14.606 2.071-30.98-4.097 5.529-9.885 14.263-17.186 27.548-6.761 12.338-9.989 20.151-13.103 27.71-4.319 10.456-8.398 20.335-21.034 40.371l-14.13 17.813s.583-9.068.688-9.992 1.667-4.967 1.511-23.045c-.187-7.201-2.22-12.805-4.08-16.869-.609 8.743-2.538 22.359-8.187 38.672-6.255 18.126-36.576 68.54-40.012 74.229-12.051 19.979-11.695 29.282-9.274 33.566 2.66 4.718 8.983 5.077 10.861 5.077l.507-.014z" fill="url(#a5fef71e-823e-41f3-87db-827d26ef0e4b_comp-lzp6ut16)"></path>
        <path d="M871.459 170.862c1.049-4.46 1.023-11.045-11.225-16.747-8.021-3.67-17.646-5.53-28.597-5.53H624.965l-79.625 99.952c-1.505 1.867-2.614 4.302-3.3 7.225-1.053 4.478-1.038 11.109 11.188 17.017 8.147 3.993 17.817 6.015 28.77 6.015h206.048l80.053-100.473c1.623-2.525 2.803-5.103 3.36-7.459zm-55.183 7.318c-.65 2.772-2.255 5.756-4.912 9.135l-61.732 77.137H616.889c-9.461 0-15.548-1.889-18.621-5.767-2.087-2.636-2.665-5.996-1.72-9.993.689-2.944 2.204-5.863 4.495-8.675l61.696-77.094h133.996c9.056 0 14.895 1.82 17.864 5.562 2.029 2.556 2.593 5.817 1.677 9.695z" fill="#FFFFFF"></path>
        <path d="m1023.401 149.72 40.206-50.313-56.202 8.805-32.935 41.509h-47.024l-11.034 13.839h47.031l-68.045 85.122c-1.594 2.377-2.75 4.862-3.296 7.203-1.085 4.582-1.135 11.325 10.865 17.013 7.803 3.839 17.383 5.768 28.528 5.768h182.041l-4.715-14.083H966.33c-9.351 0-15.372-1.867-18.406-5.699-2.05-2.589-2.617-5.892-1.69-9.813.566-2.435 2.133-5.257 4.779-8.632l61.373-76.878h163.156l11.042-13.839h-163.183z" fill="#FFFFFF"></path>
        <path fill="#FFFFFF" d="m1672.531 154.122-99.438 124.542h51.056l106.343-133.188-57.961 8.646z"></path>
        <path fill="#FFFFFF" d="m1710.098 107.205-18.378 23.103 57.779-8.628 18.679-23.315-58.08 8.84z"></path>
        <path d="M1982.398 170.984c1.627-6.97-2.136-12.442-11.519-16.736-8.234-3.67-18.191-5.541-29.563-5.541h-156.234l-104.057 129.957h50.182l92.35-115.859h82.62c9.816 0 16.111 1.917 19.246 5.874 2.072 2.618 2.654 5.946 1.728 9.882-.675 2.895-2.197 5.817-4.503 8.664l-7.433 9.333h49.243l14.644-18.356c1.587-2.374 2.74-4.866 3.296-7.218z" fill="#FFFFFF"></path>
        <path d="m2265.138 207.1 46.77-58.633-195.444.24c-13.156 0-27.832 2.499-43.621 7.433-19.379 6.04-34.334 14.518-44.46 25.204l-65.682 82.037c-1.002 3.304-.769 5.911.718 7.965 2.413 3.34 9.608 7.318 30.209 7.318h221.309l13.333-16.855h-189.502c-9.606-.754-14.992-2.858-17.182-6.629-.948-1.63-1.695-4.366.082-8.165l.352-.553 13.172-16.406h178.205c15.318 0 28.126-3.565 38.076-10.6 5.765-4.079 10.365-8.237 13.665-12.356zm-34.909-8.317c-3.484 4.346-8.876 8.676-16.488 13.25-7.103 2.521-15.423 3.681-25.251 3.681h-141.866l25.666-31.976c4.941-6.19 12.048-11.297 21.114-15.167 8.963-3.835 17.782-5.767 26.216-5.767h139.008l-28.399 35.979z" fill="#FFFFFF"></path>
        <path fill="#FFFFFF" d="m548.978 99.708-78.61 98.222-173.517-.244 86.064-107.271-61.238 9.293-142.683 178.956h53.595l52.14-65.79h173.603l-52.055 65.79h53.624L610.25 90.415l-61.272 9.293z"></path>
        <path d="M820.567 462.507c.614-2.618.571-6.492-6.873-9.943-5.17-2.362-11.386-3.569-18.463-3.569H659.476l-52.199 65.531c-.904 1.125-1.569 2.582-1.985 4.37-.621 2.644-.585 6.564 6.88 10.158 5.225 2.571 11.462 3.875 18.531 3.875h135.354l52.479-65.862c.95-1.508 1.687-3.11 2.031-4.56zm-34.529 5.261c-.467 1.967-1.579 4.054-3.414 6.395l-40.978 51.201h-87.945c-6.538 0-10.797-1.351-13.013-4.162-1.081-1.354-2.176-3.742-1.314-7.396.478-2.055 1.544-4.104 3.156-6.083l40.942-51.161h88.767c6.273 0 10.37 1.314 12.521 4.028 1.042 1.313 2.112 3.63 1.278 7.178z" fill="#FFFFFF"></path>
        <path d="M1045.115 462.834c.61-2.607.524-6.504-7.257-10.112-5.135-2.366-11.556-3.562-19.067-3.562l-104.462-.166 26.188-32.668-35.735 5.422-88.832 111.181h140.355c17.768 0 32.489-4.054 43.771-12.044l43.089-53.818c.931-1.411 1.631-2.894 1.95-4.233zm-35.114 5.102c-.514 2.188-1.587 4.299-3.203 6.266l-33.11 41.315c-5.382 5.501-13.178 8.181-23.343 8.181H854.68l53.617-67.137h87.539c6.474 0 10.679 1.336 12.869 4.111 1.06 1.328 2.148 3.681 1.296 7.264z" fill="#FFFFFF"></path>
        <path d="M1260.801 462.521c.625-2.633.589-6.507-6.862-9.958-5.156-2.362-11.371-3.569-18.449-3.569h-135.763l-52.198 65.531c-.905 1.125-1.569 2.597-1.986 4.37-.621 2.644-.585 6.55 6.88 10.158 5.229 2.571 11.462 3.875 18.532 3.875h135.36l52.472-65.862c.943-1.482 1.677-3.087 2.014-4.545zm-34.508 5.247c-.474 1.992-1.59 4.078-3.414 6.395l-40.981 51.201h-87.944c-6.539 0-10.794-1.351-13.013-4.162-1.081-1.354-2.177-3.742-1.314-7.396.478-2.055 1.544-4.104 3.156-6.083l40.941-51.161h88.768c6.276 0 10.37 1.314 12.521 4.018 1.041 1.323 2.114 3.64 1.28 7.188z" fill="#FFFFFF"></path>
        <path d="m1360.434 449.813 26.198-32.78-34.271 5.365-21.764 27.415h-30.999l-5.76 7.239h31.01l-46.102 57.642c-.908 1.376-1.615 2.923-1.964 4.381-.636 2.693-.639 6.687 6.629 10.126 5.034 2.471 11.21 3.728 18.409 3.728h118.664l-2.476-7.397h-93.232c-6.474 0-10.688-1.35-12.876-4.115-1.06-1.339-2.147-3.68-1.297-7.274.405-1.713 1.49-3.694 3.318-6.047l40.744-51.042h107.55l5.764-7.239h-107.545z" fill="#FFFFFF"></path>
        <path fill="#FFFFFF" d="m1549.659 421.748-10.374 13.041 35.337-5.26 10.567-13.196-35.53 5.415z"></path>
        <path fill="#FFFFFF" d="m1524.904 452.672-64.077 80.257h31.226l68.32-85.554-35.469 5.297z"></path>
        <path d="M1765.718 462.521c.624-2.622.606-6.471-6.679-9.789-5.159-2.377-11.447-3.572-18.693-3.572h-135.748l-52.152 65.365c-.94 1.4-1.656 2.934-1.993 4.37-.639 2.715-.632 6.733 6.819 10.316 5.128 2.46 11.385 3.717 18.597 3.717h135.155l5.958-7.397h-118.158c-6.625 0-10.934-1.375-13.178-4.223-1.084-1.375-2.202-3.803-1.314-7.504.398-1.738 1.49-3.731 3.329-6.047l40.755-51.197h88.774c6.589 0 10.869 1.35 13.073 4.137 1.06 1.339 2.145 3.68 1.301 7.238-.435 1.86-1.533 3.9-3.37 6.227l-3.697 4.636h29.836l9.364-11.731c.958-1.53 1.695-3.135 2.021-4.546z" fill="#FFFFFF"></path>
        <path d="M1869.384 449.16c-8.884 0-19.11 1.752-30.403 5.191-13.925 4.27-24.31 9.929-30.849 16.855l-17.437 21.71h119.206c7.156 0 9.146.19 10.083.373 2.492.517 4.137 1.458 5.066 2.919.514.798 1.038 2.126.621 3.936-.355 1.458-1.348 3.135-3.215 5.44l-7.85 9.774c-5.539 5.504-13.453 8.183-23.74 8.183H1766.18l-7.488 9.387h137.879c19.34 0 35.387-5.419 47.688-16.098l16.49-20.561c1.483-1.871 2.431-3.634 2.805-5.203.334-1.411-.019-2.086-.355-2.507-.764-.965-3.745-3.209-14.913-3.209h-121.145l11.771-14.65c3.386-4.32 8.319-7.796 14.65-10.306 5.745-2.424 11.697-3.667 17.648-3.667h114.832l10.28-7.723-126.938.156z" fill="#FFFFFF"></path>
        <path d="m583.56 452.063 71.557-59.673c1.264-2.003 2.229-4.122 2.689-6.046.905-3.864.675-8.895-9.268-13.516-6.812-3.125-15.045-4.719-24.479-4.719h-123.33l-133.259 164h36.545l53.323-66.041 2.14.083c.585.011 1.605.086 1.605.086l1.088.083 60.676 65.775 37.894-.313-73.636-79.758 96.455.039zm-106-19.143c.646-2.736 2.172-7.291 4.333-9.92l34.667-49.667 106.666 2.333c8.421 0 13.54 4.378 16.377 7.955 1.953 2.474 2.51 5.637 1.623 9.379-.618 2.61-2.108 5.403-4.557 8.527l-47.776 48.684-88.762-.203c-8.779 0-15.199.952-18.13-2.753-2.014-2.542-5.35-10.471-4.441-14.335z" fill="#FFFFFF"></path>
        <linearGradient y2="338.987" x2="2418.691" y1="338.987" x1="73.858" gradientUnits="userSpaceOnUse" id="d964fb7d-e11b-4061-82f2-50de1dc76def_comp-lzp6ut16">
            <stop offset="0" stop-color="#000000"></stop>
            <stop offset=".4" stop-color="#ffffff"></stop>
            <stop offset=".6" stop-color="#ffffff"></stop>
            <stop offset="1" stop-color="#000000"></stop>
        </linearGradient>
        <path fill="url(#d964fb7d-e11b-4061-82f2-50de1dc76def_comp-lzp6ut16)" d="M73.858 336.078h2344.833l-1.961 5.818H75.001l-1.143-5.818z"></path>
        <path d="M662.234 381.622c.614-2.618.571-6.492-6.873-9.943-5.17-2.362-11.386-3.569-18.463-3.569H501.143l-52.199 65.531c-.904 1.125-1.569 2.582-1.985 4.37-.621 2.644-.585 6.564 6.88 10.158 5.225 2.571 11.462 3.875 18.531 3.875h135.354l52.479-65.862c.95-1.508 1.687-3.11 2.031-4.56zm-34.529 5.261c-.467 1.967-1.579 4.054-3.414 6.395l-40.978 51.201h-87.945c-6.538 0-10.797-1.351-13.013-4.162-1.081-1.354-2.176-3.742-1.314-7.396.478-2.055 1.544-4.104 3.156-6.083l40.942-51.161h88.767c6.273 0 10.37 1.314 12.521 4.028 1.042 1.314 2.112 3.63 1.278 7.178z" fill="#FFFFFF"></path>
        <path d="m1004.688 606.898-37.219 47.607c-6.623 8.448-16.154 14.959-28.561 19.549-10.4 3.707-21 5.586-31.789 5.586H844.81c-6.82 0-12.658.799-17.537 2.414-8.219 2.73-15.52 8.179-21.932 16.357l-24.35 31.059H908.6l-11.344 14.708H735.423l43.273-55.251c5.186-6.688 12.031-12.36 20.566-17.01 8.541-4.664 16.402-6.984 23.592-6.984h67.531c6.563 0 14.076-.977 22.545-2.969 11.436-2.736 19.088-6.576 22.951-11.542l22.498-28.829H831.337l18.039-14.695h155.312z" fill="#FFFFFF"></path>
        <path d="M1020.761 681.857c-5.777-3.588-7.645-8.488-5.605-14.688.652-1.972 1.729-4.097 3.199-6.339l42.646-54.485h123.885c6.832 0 12.584 1.478 17.318 4.465 5.852 3.72 7.771 8.673 5.732 14.88-.66 1.992-1.754 4.09-3.213 6.332l-67.928 86.672c-7.887 8.172-18.969 14.695-33.188 19.516-11.615 3.971-21.508 5.97-29.68 5.97H953.21l11.521-14.708h110.127c10.777 0 21.211-4.742 31.303-14.318l22.734-29.008h-90.967c-6.798-.001-12.544-1.419-17.167-4.289zm34.593-24.924c-1.484 1.873-2.545 3.786-3.205 5.784-1.912 5.811 1.049 8.739 8.857 8.739h79.424l28.164-35.899c1.477-1.873 2.506-3.66 3.08-5.402 1.992-6.068-1.227-9.115-9.664-9.115h-78.48l-28.176 35.893z" fill="#FFFFFF"></path>
        <path d="M1229.524 681.857c-5.752-3.588-7.625-8.488-5.588-14.688.654-1.972 1.709-4.097 3.199-6.339l42.654-54.485h123.877c6.814 0 12.592 1.478 17.301 4.465 5.863 3.72 7.789 8.673 5.738 14.88-.652 1.992-1.734 4.09-3.199 6.332l-67.934 86.672c-7.902 8.172-18.977 14.695-33.184 19.516-11.627 3.971-21.52 5.97-29.691 5.97h-120.713l11.529-14.708h110.113c10.783 0 21.211-4.742 31.314-14.318l22.736-29.008h-90.973c-6.798-.001-12.542-1.419-17.179-4.289zm34.594-24.924c-1.459 1.873-2.553 3.786-3.205 5.784-1.914 5.811 1.061 8.739 8.883 8.739h79.404l28.176-35.899c1.459-1.873 2.514-3.66 3.074-5.402 1.998-6.068-1.232-9.115-9.656-9.115h-78.486l-28.19 35.893z" fill="#FFFFFF"></path>
        <path d="M1534.622 744.179h-123.885c-6.813 0-12.578-1.55-17.24-4.657-5.738-3.726-7.6-8.672-5.568-14.865.818-2.494 1.895-4.551 3.154-6.141l87.84-112.171h123.883c6.814 0 12.598 1.478 17.309 4.465 5.744 3.72 7.557 8.673 5.52 14.88-.646 1.992-1.709 4.09-3.199 6.332l-87.814 112.157zm51.313-108.622c1.504-1.873 2.533-3.727 3.16-5.594 1.951-5.942-1.102-8.924-9.154-8.924h-78.68l-73.6 93.736c-1.496 1.867-2.539 3.799-3.199 5.777-1.951 5.949 1.088 8.918 9.143 8.918h78.684l73.646-93.913z" fill="#FFFFFF"></path>
    </g>
</svg>